<svg width="22" height="19" viewBox="0 0 22 19" fill="none" xmlns="http://www.w3.org/2000/svg">
<path d="M14.4375 9.49991C14.4375 10.6188 14.0753 11.6918 13.4307 12.483C12.786 13.2742 11.9117 13.7186 11 13.7186C10.0883 13.7186 9.21398 13.2742 8.56932 12.483C7.92466 11.6918 7.5625 10.6188 7.5625 9.49991C7.5625 8.38104 7.92466 7.30799 8.56932 6.51682C9.21398 5.72566 10.0883 5.28119 11 5.28119C11.9117 5.28119 12.786 5.72566 13.4307 6.51682C14.0753 7.30799 14.4375 8.38104 14.4375 9.49991V9.49991Z" fill="#2F2F2F"/>
<path d="M0 9.49991C0 9.49991 4.125 0.218719 11 0.218719C17.875 0.218719 22 9.49991 22 9.49991C22 9.49991 17.875 18.7811 11 18.7811C4.125 18.7811 0 9.49991 0 9.49991ZM11 15.4061C12.2764 15.4061 13.5004 14.7839 14.403 13.6762C15.3055 12.5686 15.8125 11.0663 15.8125 9.49991C15.8125 7.93348 15.3055 6.43121 14.403 5.32359C13.5004 4.21596 12.2764 3.5937 11 3.5937C9.72365 3.5937 8.49957 4.21596 7.59705 5.32359C6.69453 6.43121 6.1875 7.93348 6.1875 9.49991C6.1875 11.0663 6.69453 12.5686 7.59705 13.6762C8.49957 14.7839 9.72365 15.4061 11 15.4061V15.4061Z" fill="#2F2F2F"/>
</svg>
