<svg width="35" height="32" viewBox="0 0 35 32" fill="none" xmlns="http://www.w3.org/2000/svg">
<g clip-path="url(#clip0_342_1811)">
<path d="M8.1888 19.3378L7.02749 23.4961L2.78293 23.5822C1.51444 21.3255 0.794922 18.7436 0.794922 15.9999C0.794922 13.3467 1.46765 10.8447 2.66011 8.6416H2.66102L6.43986 9.3061L8.09523 12.9089C7.74876 13.8777 7.55993 14.9177 7.55993 15.9999C7.56006 17.1744 7.78187 18.2997 8.1888 19.3378Z" fill="#FBBB00"/>
<path d="M33.8664 13.011C34.058 13.9789 34.1579 14.9784 34.1579 16C34.1579 17.1455 34.0323 18.2629 33.7931 19.3407C32.9811 23.0084 30.8592 26.211 27.9198 28.4774L27.9189 28.4765L23.1593 28.2436L22.4856 24.2101C24.436 23.113 25.9603 21.396 26.7632 19.3407H17.8433V13.011H26.8934H33.8664Z" fill="#518EF8"/>
<path d="M27.9189 28.4763L27.9198 28.4772C25.0611 30.6811 21.4296 31.9998 17.4765 31.9998C11.1239 31.9998 5.60072 28.5941 2.7832 23.5823L8.18907 19.3379C9.59779 22.944 13.2246 25.5111 17.4765 25.5111C19.3041 25.5111 21.0163 25.0372 22.4855 24.21L27.9189 28.4763Z" fill="#28B446"/>
<path d="M28.124 3.6835L22.7199 7.927C21.1994 7.01538 19.402 6.48875 17.4763 6.48875C13.1282 6.48875 9.4335 9.17356 8.09534 12.909L2.66107 8.64175H2.66016C5.43643 3.50769 11.0292 0 17.4763 0C21.5238 0 25.235 1.38287 28.124 3.6835Z" fill="#F14336"/>
</g>
<defs>
<clipPath id="clip0_342_1811">
<rect width="33.3627" height="32" fill="white" transform="translate(0.794922)"/>
</clipPath>
</defs>
</svg>
